<?xml version="1.0" encoding="UTF-8"?>
<!-- Gemini Direction C: 5 motion lines, 3 film frames, sprocket rows. -->
<svg xmlns="http://www.w3.org/2000/svg" viewBox="0 0 512 512" fill="none" role="img" aria-label="ScriptToReel mark">
  <defs>
    <mask id="str-film-cutouts" maskUnits="userSpaceOnUse">
      <rect width="512" height="512" fill="white"/>
      <!-- Three frame windows (spec sheet) -->
      <rect x="246" y="168" width="50" height="118" rx="4" fill="black"/>
      <rect x="304" y="168" width="50" height="118" rx="4" fill="black"/>
      <rect x="362" y="168" width="50" height="118" rx="4" fill="black"/>
      <!-- Top sprockets -->
      <rect x="244" y="138" width="9" height="10" rx="1" fill="black"/>
      <rect x="259" y="138" width="9" height="10" rx="1" fill="black"/>
      <rect x="274" y="138" width="9" height="10" rx="1" fill="black"/>
      <rect x="289" y="138" width="9" height="10" rx="1" fill="black"/>
      <rect x="304" y="138" width="9" height="10" rx="1" fill="black"/>
      <rect x="319" y="138" width="9" height="10" rx="1" fill="black"/>
      <rect x="334" y="138" width="9" height="10" rx="1" fill="black"/>
      <rect x="349" y="138" width="9" height="10" rx="1" fill="black"/>
      <rect x="364" y="138" width="9" height="10" rx="1" fill="black"/>
      <rect x="379" y="138" width="9" height="10" rx="1" fill="black"/>
      <rect x="394" y="138" width="9" height="10" rx="1" fill="black"/>
      <rect x="409" y="138" width="9" height="10" rx="1" fill="black"/>
      <rect x="424" y="138" width="9" height="10" rx="1" fill="black"/>
      <!-- Bottom sprockets -->
      <rect x="244" y="306" width="9" height="10" rx="1" fill="black"/>
      <rect x="259" y="306" width="9" height="10" rx="1" fill="black"/>
      <rect x="274" y="306" width="9" height="10" rx="1" fill="black"/>
      <rect x="289" y="306" width="9" height="10" rx="1" fill="black"/>
      <rect x="304" y="306" width="9" height="10" rx="1" fill="black"/>
      <rect x="319" y="306" width="9" height="10" rx="1" fill="black"/>
      <rect x="334" y="306" width="9" height="10" rx="1" fill="black"/>
      <rect x="349" y="306" width="9" height="10" rx="1" fill="black"/>
      <rect x="364" y="306" width="9" height="10" rx="1" fill="black"/>
      <rect x="379" y="306" width="9" height="10" rx="1" fill="black"/>
      <rect x="394" y="306" width="9" height="10" rx="1" fill="black"/>
      <rect x="409" y="306" width="9" height="10" rx="1" fill="black"/>
      <rect x="424" y="306" width="9" height="10" rx="1" fill="black"/>
    </mask>
  </defs>

  <g fill="#CCFF00">
    <rect x="28" y="166" width="56" height="16" rx="8"/>
    <rect x="28" y="190" width="82" height="16" rx="8"/>
    <rect x="28" y="214" width="108" height="16" rx="8"/>
    <rect x="28" y="238" width="134" height="16" rx="8"/>
    <rect x="28" y="262" width="160" height="16" rx="8"/>
  </g>

  <path fill="#CCFF00" d="M 188 160 L 236 128 L 236 326 L 188 294 C 172 278 168 250 172 220 C 175 195 178 175 188 160 Z"/>

  <rect fill="#CCFF00" mask="url(#str-film-cutouts)" x="236" y="126" width="212" height="202" rx="16"/>
</svg>
